# MagicaVoxel @ Ephtracy

# group
o 

# material
mtllib floor_0.mtl
usemtl palette

# normals
vn -1 0 0
vn 1 0 0
vn 0 0 1
vn 0 0 -1
vn 0 -1 0
vn 0 1 0

# texcoords
vt 0.970703 0.5
vt 0.974609 0.5
vt 0.978516 0.5

# verts
v -1.6 0 1.6
v -1.6 0 -1.6
v -1.6 0.1 0.9
v -1.6 0.1 0.6
v -1.6 0.1 -0.3
v -1.6 0.1 -0.7
v -1.6 0.2 1.6
v -1.6 0.2 0.9
v -1.6 0.2 0.6
v -1.6 0.2 -0.3
v -1.6 0.2 -0.7
v -1.6 0.2 -1.6
v 1.6 0 1.6
v 1.6 0 -1.6
v 1.6 0.1 0.9
v 1.6 0.1 0.6
v 1.6 0.1 -0.9
v 1.6 0.1 -1.2
v 1.6 0.2 1.6
v 1.6 0.2 0.9
v 1.6 0.2 0.6
v 1.6 0.2 -0.9
v 1.6 0.2 -1.2
v 1.6 0.2 -1.6
v -1.6 0 1.6
v -1.6 0.2 1.6
v -0.5 0.1 1.6
v -0.5 0.2 1.6
v -0.1 0.1 1.6
v -0.1 0.2 1.6
v 0.9 0.1 1.6
v 0.9 0.2 1.6
v 1.1 0.1 1.6
v 1.1 0.2 1.6
v 1.6 0 1.6
v 1.6 0.2 1.6
v -1.6 0 -1.6
v -1.6 0.2 -1.6
v -0.5 0.1 -1.6
v -0.5 0.2 -1.6
v -0.1 0.1 -1.6
v -0.1 0.2 -1.6
v 0.9 0.1 -1.6
v 0.9 0.2 -1.6
v 1.1 0.1 -1.6
v 1.1 0.2 -1.6
v 1.6 0 -1.6
v 1.6 0.2 -1.6
v -1.6 0 1.6
v 1.6 0 1.6
v -1.6 0 -1.6
v 1.6 0 -1.6
v -1.6 0.2 1.6
v -0.5 0.2 1.6
v -0.1 0.2 1.6
v 0.9 0.2 1.6
v 1.1 0.2 1.6
v 1.6 0.2 1.6
v -0.5 0.2 1.5
v -0.1 0.2 1.5
v 0.9 0.2 1.5
v 1.1 0.2 1.5
v -1 0.2 1.4
v -0.7 0.2 1.4
v -1 0.2 1.2
v -0.7 0.2 1.2
v 0.2 0.2 1.2
v 0.4 0.2 1.2
v -0.5 0.2 1
v -0.3 0.2 1
v 1 0.2 1
v 1.3 0.2 1
v -1.6 0.2 0.9
v -1.5 0.2 0.9
v 1.4 0.2 0.9
v 1.6 0.2 0.9
v -0.5 0.2 0.8
v -0.3 0.2 0.8
v 0.2 0.2 0.8
v 0.4 0.2 0.8
v 1 0.2 0.8
v 1.3 0.2 0.8
v -1.6 0.2 0.6
v -1.5 0.2 0.6
v 1.4 0.2 0.6
v 1.6 0.2 0.6
v -1 0.2 0.4
v -0.8 0.2 0.4
v -0.6 0.2 0.3
v -0.2 0.2 0.3
v -1 0.2 0.1
v -0.8 0.2 0.1
v -0.6 0.2 0.1
v -0.2 0.2 0.1
v -0.3 0.2 0
v 0.1 0.2 0
v 0.6 0.2 -0.1
v 0.8 0.2 -0.1
v -0.3 0.2 -0.2
v 0.1 0.2 -0.2
v -1.6 0.2 -0.3
v -1.1 0.2 -0.3
v 0.6 0.2 -0.4
v 0.8 0.2 -0.4
v 0.2 0.2 -0.5
v 0.5 0.2 -0.5
v -1.6 0.2 -0.7
v -1.1 0.2 -0.7
v 0.2 0.2 -0.9
v 0.5 0.2 -0.9
v 1.3 0.2 -0.9
v 1.6 0.2 -0.9
v -0.9 0.2 -1
v -0.4 0.2 -1
v 1.3 0.2 -1.2
v 1.6 0.2 -1.2
v -0.9 0.2 -1.3
v -0.4 0.2 -1.3
v -0.5 0.2 -1.5
v -0.1 0.2 -1.5
v 0.9 0.2 -1.5
v 1.1 0.2 -1.5
v -1.6 0.2 -1.6
v -0.5 0.2 -1.6
v -0.1 0.2 -1.6
v 0.9 0.2 -1.6
v 1.1 0.2 -1.6
v 1.6 0.2 -1.6

# faces
f 3/2/1 2/2/1 1/2/1
f 4/2/1 2/2/1 3/2/1
f 5/2/1 2/2/1 4/2/1
f 6/2/1 2/2/1 5/2/1
f 7/2/1 3/2/1 1/2/1
f 8/1/1 4/1/1 3/1/1
f 8/2/1 3/2/1 7/2/1
f 9/2/1 5/2/1 4/2/1
f 9/1/1 4/1/1 8/1/1
f 10/1/1 6/1/1 5/1/1
f 10/2/1 5/2/1 9/2/1
f 11/2/1 2/2/1 6/2/1
f 11/1/1 6/1/1 10/1/1
f 12/2/1 2/2/1 11/2/1
f 13/2/2 14/2/2 15/2/2
f 15/2/2 14/2/2 16/2/2
f 16/2/2 14/2/2 17/2/2
f 17/2/2 14/2/2 18/2/2
f 13/2/2 15/2/2 19/2/2
f 15/1/2 16/1/2 20/1/2
f 19/2/2 15/2/2 20/2/2
f 16/2/2 17/2/2 21/2/2
f 20/1/2 16/1/2 21/1/2
f 17/1/2 18/1/2 22/1/2
f 21/2/2 17/2/2 22/2/2
f 18/2/2 14/2/2 23/2/2
f 22/1/2 18/1/2 23/1/2
f 23/2/2 14/2/2 24/2/2
f 27/2/3 26/2/3 25/2/3
f 28/2/3 26/2/3 27/2/3
f 29/2/3 27/2/3 25/2/3
f 29/3/3 28/3/3 27/3/3
f 30/3/3 28/3/3 29/3/3
f 31/2/3 29/2/3 25/2/3
f 31/2/3 30/2/3 29/2/3
f 32/2/3 30/2/3 31/2/3
f 33/2/3 31/2/3 25/2/3
f 33/3/3 32/3/3 31/3/3
f 34/3/3 32/3/3 33/3/3
f 35/2/3 33/2/3 25/2/3
f 35/2/3 34/2/3 33/2/3
f 36/2/3 34/2/3 35/2/3
f 37/2/4 38/2/4 39/2/4
f 39/2/4 38/2/4 40/2/4
f 37/2/4 39/2/4 41/2/4
f 39/3/4 40/3/4 41/3/4
f 41/3/4 40/3/4 42/3/4
f 37/2/4 41/2/4 43/2/4
f 41/2/4 42/2/4 43/2/4
f 43/2/4 42/2/4 44/2/4
f 37/2/4 43/2/4 45/2/4
f 43/3/4 44/3/4 45/3/4
f 45/3/4 44/3/4 46/3/4
f 37/2/4 45/2/4 47/2/4
f 45/2/4 46/2/4 47/2/4
f 47/2/4 46/2/4 48/2/4
f 51/2/5 50/2/5 49/2/5
f 52/2/5 50/2/5 51/2/5
f 53/2/6 54/2/6 59/2/6
f 54/3/6 55/3/6 59/3/6
f 55/2/6 56/2/6 60/2/6
f 59/3/6 55/3/6 60/3/6
f 56/3/6 57/3/6 61/3/6
f 60/2/6 56/2/6 61/2/6
f 57/2/6 58/2/6 62/2/6
f 61/3/6 57/3/6 62/3/6
f 60/2/6 61/2/6 63/2/6
f 59/2/6 60/2/6 63/2/6
f 61/2/6 62/2/6 63/2/6
f 53/2/6 59/2/6 63/2/6
f 63/2/6 62/2/6 64/2/6
f 53/2/6 63/2/6 65/2/6
f 63/1/6 64/1/6 65/1/6
f 64/2/6 62/2/6 66/2/6
f 65/1/6 64/1/6 66/1/6
f 66/2/6 62/2/6 67/2/6
f 67/2/6 62/2/6 68/2/6
f 65/2/6 66/2/6 69/2/6
f 66/2/6 67/2/6 69/2/6
f 69/2/6 67/2/6 70/2/6
f 68/2/6 62/2/6 71/2/6
f 62/2/6 58/2/6 72/2/6
f 71/2/6 62/2/6 72/2/6
f 53/2/6 65/2/6 73/2/6
f 65/2/6 69/2/6 73/2/6
f 73/2/6 69/2/6 74/2/6
f 72/2/6 58/2/6 75/2/6
f 75/2/6 58/2/6 76/2/6
f 74/2/6 69/2/6 77/2/6
f 69/3/6 70/3/6 77/3/6
f 70/2/6 67/2/6 78/2/6
f 77/3/6 70/3/6 78/3/6
f 67/1/6 68/1/6 79/1/6
f 78/2/6 67/2/6 79/2/6
f 68/2/6 71/2/6 80/2/6
f 79/1/6 68/1/6 80/1/6
f 71/3/6 72/3/6 81/3/6
f 80/2/6 71/2/6 81/2/6
f 72/2/6 75/2/6 82/2/6
f 81/3/6 72/3/6 82/3/6
f 73/1/6 74/1/6 83/1/6
f 78/2/6 79/2/6 84/2/6
f 83/1/6 74/1/6 84/1/6
f 74/2/6 77/2/6 84/2/6
f 81/2/6 82/2/6 84/2/6
f 80/2/6 81/2/6 84/2/6
f 77/2/6 78/2/6 84/2/6
f 79/2/6 80/2/6 84/2/6
f 82/2/6 75/2/6 85/2/6
f 84/2/6 82/2/6 85/2/6
f 75/1/6 76/1/6 85/1/6
f 85/1/6 76/1/6 86/1/6
f 83/2/6 84/2/6 87/2/6
f 84/2/6 85/2/6 87/2/6
f 85/2/6 86/2/6 87/2/6
f 87/2/6 86/2/6 88/2/6
f 88/2/6 86/2/6 89/2/6
f 89/2/6 86/2/6 90/2/6
f 83/2/6 87/2/6 91/2/6
f 87/3/6 88/3/6 91/3/6
f 88/2/6 89/2/6 92/2/6
f 91/3/6 88/3/6 92/3/6
f 89/1/6 90/1/6 93/1/6
f 92/2/6 89/2/6 93/2/6
f 90/2/6 86/2/6 94/2/6
f 93/1/6 90/1/6 94/1/6
f 92/2/6 93/2/6 95/2/6
f 91/2/6 92/2/6 95/2/6
f 93/2/6 94/2/6 95/2/6
f 94/2/6 86/2/6 96/2/6
f 95/2/6 94/2/6 96/2/6
f 96/2/6 86/2/6 97/2/6
f 97/2/6 86/2/6 98/2/6
f 91/2/6 95/2/6 99/2/6
f 95/3/6 96/3/6 99/3/6
f 96/2/6 97/2/6 100/2/6
f 99/3/6 96/3/6 100/3/6
f 83/2/6 91/2/6 101/2/6
f 91/2/6 99/2/6 101/2/6
f 99/2/6 100/2/6 101/2/6
f 101/2/6 100/2/6 102/2/6
f 100/2/6 97/2/6 103/2/6
f 102/2/6 100/2/6 103/2/6
f 97/3/6 98/3/6 103/3/6
f 98/2/6 86/2/6 104/2/6
f 103/3/6 98/3/6 104/3/6
f 102/2/6 103/2/6 105/2/6
f 103/2/6 104/2/6 105/2/6
f 105/2/6 104/2/6 106/2/6
f 101/1/6 102/1/6 107/1/6
f 102/2/6 105/2/6 108/2/6
f 107/1/6 102/1/6 108/1/6
f 105/1/6 106/1/6 109/1/6
f 108/2/6 105/2/6 109/2/6
f 107/2/6 108/2/6 109/2/6
f 106/2/6 104/2/6 110/2/6
f 109/1/6 106/1/6 110/1/6
f 104/2/6 86/2/6 111/2/6
f 110/2/6 104/2/6 111/2/6
f 111/2/6 86/2/6 112/2/6
f 109/2/6 110/2/6 113/2/6
f 107/2/6 109/2/6 113/2/6
f 110/2/6 111/2/6 113/2/6
f 113/2/6 111/2/6 114/2/6
f 111/1/6 112/1/6 115/1/6
f 114/2/6 111/2/6 115/2/6
f 115/1/6 112/1/6 116/1/6
f 113/1/6 114/1/6 117/1/6
f 107/2/6 113/2/6 117/2/6
f 115/2/6 116/2/6 118/2/6
f 117/1/6 114/1/6 118/1/6
f 114/2/6 115/2/6 118/2/6
f 117/2/6 118/2/6 119/2/6
f 118/2/6 116/2/6 120/2/6
f 119/2/6 118/2/6 120/2/6
f 120/2/6 116/2/6 121/2/6
f 121/2/6 116/2/6 122/2/6
f 107/2/6 117/2/6 123/2/6
f 117/2/6 119/2/6 123/2/6
f 119/3/6 120/3/6 124/3/6
f 123/2/6 119/2/6 124/2/6
f 120/2/6 121/2/6 125/2/6
f 124/3/6 120/3/6 125/3/6
f 121/3/6 122/3/6 126/3/6
f 125/2/6 121/2/6 126/2/6
f 122/2/6 116/2/6 127/2/6
f 126/3/6 122/3/6 127/3/6
f 127/2/6 116/2/6 128/2/6
